<svg xmlns="http://www.w3.org/2000/svg" xmlns:xlink="http://www.w3.org/1999/xlink" viewBox="0 0 350.77 326.67"><defs><style>.cls-1,.cls-6,.cls-7,.cls-8{fill:none;}.cls-2{clip-path:url(#clip-path);}.cls-3,.cls-5{fill:#36f;}.cls-4,.cls-9{fill:#fff;}.cls-4,.cls-6,.cls-7,.cls-8,.cls-9{stroke:#fff;}.cls-4,.cls-5,.cls-6,.cls-7,.cls-9{stroke-miterlimit:10;}.cls-4,.cls-5{stroke-width:5px;}.cls-5{stroke:#36f;}.cls-6{stroke-width:3px;}.cls-7,.cls-8{stroke-width:2px;}</style><clipPath id="clip-path" transform="translate(-67.48 -115.23)"><rect class="cls-1" width="500" height="505.24"/></clipPath></defs><title>Slykhub</title><g id="Layer_2" data-name="Layer 2"><g id="Layer_1-2" data-name="Layer 1"><g class="cls-2"><path class="cls-3" d="M310.72,215.53c-19-26.77-90.39-26.76-109.35,0q-9.15,12.9-9.16,44.36t9.16,44.37c18.35,25.87,90.52,27.6,109.35,1.05q9.15-12.9,9.16-45.42Q319.88,228.44,310.72,215.53Z" transform="translate(-67.48 -115.23)"/><path class="cls-3" d="M153.53,225.9c-13.78-19.44-65.64-19.43-79.4,0q-6.66,9.38-6.65,32.21t6.65,32.22c13.32,18.79,65.72,20,79.4.77q6.65-9.39,6.65-33Q160.18,235.27,153.53,225.9Z" transform="translate(-67.48 -115.23)"/><path class="cls-4" d="M292.52,269.64a16.07,16.07,0,0,0-8.2-5.52l-54.65-15.55A6.43,6.43,0,0,1,231.5,236H294v-8.31H231.5a14.73,14.73,0,0,0-4.08,28.92L282,272.1a7.75,7.75,0,0,1,3.93,2.64,7,7,0,0,1-.63,9.51,7.73,7.73,0,0,1-5.37,2.2h-61.6v8.3H280a15.74,15.74,0,0,0,11.22-4.61,15.53,15.53,0,0,0,3.44-5.14,15.81,15.81,0,0,0,1.21-6.07A15.6,15.6,0,0,0,292.52,269.64Z" transform="translate(-67.48 -115.23)"/><path class="cls-3" d="M292.59,362.81c-13.78-19.44-65.63-19.43-79.4,0q-6.65,9.36-6.65,32.21t6.65,32.22c13.33,18.78,65.73,20,79.4.76q6.65-9.37,6.65-33Q299.24,372.18,292.59,362.81Z" transform="translate(-67.48 -115.23)"/><path class="cls-3" d="M411.59,129.81c-13.78-19.44-65.63-19.43-79.4,0q-6.65,9.36-6.65,32.21t6.65,32.22c13.33,18.78,65.73,20,79.4.76q6.65-9.37,6.65-33Q418.24,139.17,411.59,129.81Z" transform="translate(-67.48 -115.23)"/><path class="cls-3" d="M188.35,134.91c-9.27-13.07-44.15-13.06-53.41,0q-4.47,6.3-4.47,21.67t4.47,21.67c9,12.63,44.21,13.48,53.41.51q4.46-6.3,4.47-22.18Q192.82,141.22,188.35,134.91Z" transform="translate(-67.48 -115.23)"/><line class="cls-5" x1="115.42" y1="67.09" x2="147.42" y2="101.99"/><line class="cls-5" x1="236.39" y1="103.77" x2="268.31" y2="75.68"/><line class="cls-5" x1="85.77" y1="142.07" x2="133.13" y2="141.76"/><line class="cls-5" x1="188.85" y1="247.81" x2="188.85" y2="200.45"/><path class="cls-6" d="M382.57,186.66V176.22a8.3,8.3,0,0,0-.76-3.46,8.47,8.47,0,0,0-2.14-2.86l-2.28-2a8.59,8.59,0,0,0-5.63-2.1H353.07a8.62,8.62,0,0,0-5.64,2.1l-2.27,2a8.47,8.47,0,0,0-2.14,2.86,8.3,8.3,0,0,0-.76,3.46v10.44" transform="translate(-67.48 -115.23)"/><path class="cls-6" d="M402.9,179.67v-8.62A8.45,8.45,0,0,0,400,164.7l-2.28-2a8.59,8.59,0,0,0-5.63-2.1h-13" transform="translate(-67.48 -115.23)"/><path class="cls-6" d="M380,160.7a9.6,9.6,0,0,0-4,.88" transform="translate(-67.48 -115.23)"/><path class="cls-6" d="M371,140.53c-3-4.28-14.15-4.28-17.12,0-.95,1.37-1.43,3.74-1.43,7.09s.48,5.72,1.43,7.1c2.87,4.13,14.17,4.41,17.12.17q1.42-2.07,1.43-7.27C372.44,144.27,372,141.9,371,140.53Z" transform="translate(-67.48 -115.23)"/><path class="cls-6" d="M394,137.35c-2.48-3.57-11.81-3.57-14.28,0q-1.2,1.72-1.2,5.92c0,2.8.4,4.78,1.2,5.92,2.39,3.46,11.82,3.69,14.28.14q1.2-1.71,1.2-6.06T394,137.35Z" transform="translate(-67.48 -115.23)"/><path class="cls-7" d="M110.09,226.49c-2.38-.45-6,3.22-5.56,5.61a6.19,6.19,0,0,0,1.88,2.82,6.13,6.13,0,0,0,2.81,1.89c2.3.43,6.06-3.19,5.61-5.56a6.28,6.28,0,0,0-1.93-2.88A6.09,6.09,0,0,0,110.09,226.49Z" transform="translate(-67.48 -115.23)"/><path class="cls-7" d="M113.52,229.06a7,7,0,0,1,2.08-.31h10.48a7.16,7.16,0,0,1,2.74.54,7.58,7.58,0,0,1,2.32,1.56l16.51,16.63a7.17,7.17,0,0,1,2.09,5.09v10.35a7.17,7.17,0,0,1-2.09,5.09L127.9,287.9" transform="translate(-67.48 -115.23)"/><path class="cls-7" d="M106.47,235,90.35,251.19a7.17,7.17,0,0,0-2.09,5.09v4.22a7.22,7.22,0,0,0,2.09,5.09l13.58,13.67a2.16,2.16,0,0,0,1.52.63h3.16a2.16,2.16,0,0,0,1.52-.63l1.68-1.69" transform="translate(-67.48 -115.23)"/><path class="cls-7" d="M84.32,271.22l-2.15-2.17A7.17,7.17,0,0,1,80.08,264V253.61a7.22,7.22,0,0,1,2.09-5.09L99.92,229.9" transform="translate(-67.48 -115.23)"/><path class="cls-7" d="M122,282.09l-3.23,3.25a7.13,7.13,0,0,1-5.06,2.11H103.2a7.16,7.16,0,0,1-5.06-2.11L87.92,275.05" transform="translate(-67.48 -115.23)"/><path class="cls-7" d="M137.4,248.43l2.8,2.81a3.9,3.9,0,0,1,1.14,2.79V261a3.9,3.9,0,0,1-1.14,2.79L125.83,278.2" transform="translate(-67.48 -115.23)"/><path class="cls-7" d="M118,238.8l1.82-1.82a2.14,2.14,0,0,1,1.52-.64h3.16A2.14,2.14,0,0,1,126,237l7.69,7.74" transform="translate(-67.48 -115.23)"/><path class="cls-7" d="M124.17,277.21c-1.38-.26-3.48,1.86-3.23,3.25A3.6,3.6,0,0,0,122,282.1a3.51,3.51,0,0,0,1.62,1.09c1.34.25,3.52-1.84,3.26-3.22a3.7,3.7,0,0,0-1.11-1.66A3.64,3.64,0,0,0,124.17,277.21Z" transform="translate(-67.48 -115.23)"/><path class="cls-7" d="M135.79,243.59c-1.38-.26-3.49,1.86-3.23,3.24a5,5,0,0,0,2.71,2.73c1.33.25,3.52-1.84,3.26-3.21a3.67,3.67,0,0,0-1.12-1.67,3.51,3.51,0,0,0-1.62-1.09Z" transform="translate(-67.48 -115.23)"/><path class="cls-7" d="M86.34,270.11c-1.38-.26-3.49,1.86-3.23,3.25A3.54,3.54,0,0,0,84.2,275a3.61,3.61,0,0,0,1.62,1.1c1.33.25,3.52-1.84,3.26-3.22A3.67,3.67,0,0,0,88,271.2a3.51,3.51,0,0,0-1.62-1.09Z" transform="translate(-67.48 -115.23)"/><path class="cls-7" d="M96.21,289.85a1.08,1.08,0,0,1-.29.71l-2.1,2.28a1.07,1.07,0,0,1-.68.35h-1a1.07,1.07,0,0,1-.68-.35l-2.1-2.28a1.08,1.08,0,0,1-.29-.71v-.53a1.1,1.1,0,0,1,.29-.71l2.1-2.28a1.07,1.07,0,0,1,.68-.35h1a1.07,1.07,0,0,1,.68.35l2.1,2.28a1.1,1.1,0,0,1,.29.71Z" transform="translate(-67.48 -115.23)"/><path class="cls-7" d="M83.4,282.38a.69.69,0,0,1-.17.41L82,284.1a.67.67,0,0,1-.4.2h-.58a.64.64,0,0,1-.39-.2l-1.21-1.31a.62.62,0,0,1-.16-.41v-.3a.62.62,0,0,1,.16-.41l1.21-1.31a.64.64,0,0,1,.39-.2h.58a.67.67,0,0,1,.4.2l1.2,1.31a.69.69,0,0,1,.17.41Z" transform="translate(-67.48 -115.23)"/><path class="cls-7" d="M146.88,234.28a.62.62,0,0,1-.16.41L145.51,236a.58.58,0,0,1-.39.19h-.58a.63.63,0,0,1-.4-.19l-1.2-1.31a.69.69,0,0,1-.17-.41V234a.71.71,0,0,1,.17-.41l1.2-1.3a.59.59,0,0,1,.4-.2h.58a.55.55,0,0,1,.39.2l1.21,1.3a.64.64,0,0,1,.16.41Z" transform="translate(-67.48 -115.23)"/><path class="cls-7" d="M86.77,234.76a.61.61,0,0,1-.17.41l-1.2,1.31a.55.55,0,0,1-.39.2h-.59a.55.55,0,0,1-.39-.2l-1.2-1.31a.57.57,0,0,1-.17-.41v-.3a.58.58,0,0,1,.17-.41l1.2-1.31a.64.64,0,0,1,.39-.2H85a.64.64,0,0,1,.39.2l1.2,1.31a.63.63,0,0,1,.17.41Z" transform="translate(-67.48 -115.23)"/><path class="cls-8" d="M127.17,247.94c-4.27-6-20.34-6-24.61,0q-2.06,2.88-2.06,9.9c0,4.67.69,8,2.06,9.9,4.13,5.77,20.37,6.16,24.61.23q2.05-2.88,2.06-10.13Q129.23,250.82,127.17,247.94Z" transform="translate(-67.48 -115.23)"/><path class="cls-7" d="M120.62,253.42h-9.5a1.65,1.65,0,0,0-1.14.46,1.55,1.55,0,0,0-.48,1.12h0a1.55,1.55,0,0,0,.32,1,1.63,1.63,0,0,0,.85.58l8.31,2.34a1.76,1.76,0,0,1,.92.62,1.67,1.67,0,0,1-.15,2.26,1.8,1.8,0,0,1-1.26.51h-9.37" transform="translate(-67.48 -115.23)"/><line class="cls-7" x1="47.82" y1="134.91" x2="47.82" y2="138.2"/><line class="cls-7" x1="47.82" y1="146.96" x2="47.82" y2="150.25"/><path class="cls-7" d="M181.94,159.85a4.28,4.28,0,0,0-1.45-3.2l-1.15-1a4.28,4.28,0,0,0-2.85-1.05h-8.41a4.6,4.6,0,0,0-2.86,1.05l-1.05,1a4.36,4.36,0,0,0-1.45,3.2v9.61a4.28,4.28,0,0,0,1.45,3.2l1.15,1a4.32,4.32,0,0,0,2.86,1.05h8.4a4.55,4.55,0,0,0,2.86-1.05l1.15-1a4.36,4.36,0,0,0,1.45-3.2l0-2.25-.12-7.36Z" transform="translate(-67.48 -115.23)"/><path class="cls-7" d="M165.33,173.65H150.45a6.08,6.08,0,0,1-4.52-2l-2.43-2.72a6,6,0,0,1-1.49-4.72l2.55-18.54a2.23,2.23,0,0,1,.73-1.41l1.66-1.48a2.27,2.27,0,0,1,1.49-.57h21a2.27,2.27,0,0,1,1.49.57l1.66,1.48a2.23,2.23,0,0,1,.73,1.41l1.14,7.78" transform="translate(-67.48 -115.23)"/><path class="cls-7" d="M166.94,148.88v-10a3.38,3.38,0,0,0-1.15-2.54l-.9-.79a3.36,3.36,0,0,0-2.24-.85h-7.42a3.35,3.35,0,0,0-2.23.85l-.9.79A3.38,3.38,0,0,0,151,138.9v10" transform="translate(-67.48 -115.23)"/><path class="cls-7" d="M162.73,158.52l3.94,4a2.73,2.73,0,0,0,1.93.81h7.2a2.75,2.75,0,0,0,1.93-.81l3.94-4" transform="translate(-67.48 -115.23)"/><path class="cls-7" d="M169.32,169.26h6.14" transform="translate(-67.48 -115.23)"/><path class="cls-7" d="M257.84,389.56c-6.33-8.93-30.16-8.93-36.49,0q-3,4.31-3,14.81t3,14.8c6.13,8.64,30.2,9.21,36.49.35q3-4.31,3.05-15.15Q260.89,393.87,257.84,389.56Z" transform="translate(-67.48 -115.23)"/><path class="cls-9" d="M230.14,409.27a6,6,0,0,1-2.46-.36,1.75,1.75,0,0,1-.9-1.28,29.45,29.45,0,0,1,0-6.32,1.71,1.71,0,0,1,.9-1.27,5.77,5.77,0,0,1,2.46-.37,5.7,5.7,0,0,1,2.44.37,1.67,1.67,0,0,1,.9,1.28,26.29,26.29,0,0,1,0,6.31,1.7,1.7,0,0,1-.9,1.28A5.9,5.9,0,0,1,230.14,409.27Zm0-1.09a5,5,0,0,0,1.67-.18,1.07,1.07,0,0,0,.56-.87,29.54,29.54,0,0,0,0-5.32,1,1,0,0,0-.56-.86,4.68,4.68,0,0,0-1.67-.19,4.82,4.82,0,0,0-1.69.19,1,1,0,0,0-.56.86,27.28,27.28,0,0,0,0,5.32,1.07,1.07,0,0,0,.56.87A5.16,5.16,0,0,0,230.14,408.18Zm6.86,1v-7.94l-1.93.93V401l2.27-1.24h.84v9.38Zm7.11.11a6,6,0,0,1-2.46-.36,1.75,1.75,0,0,1-.9-1.28,27.83,27.83,0,0,1,0-6.32,1.71,1.71,0,0,1,.9-1.27,5.77,5.77,0,0,1,2.46-.37,5.7,5.7,0,0,1,2.44.37,1.63,1.63,0,0,1,.89,1.28,25,25,0,0,1,0,6.31,1.67,1.67,0,0,1-.89,1.28A5.9,5.9,0,0,1,244.11,409.27Zm0-1.09a5,5,0,0,0,1.67-.18,1.07,1.07,0,0,0,.56-.87,29.54,29.54,0,0,0,0-5.32,1,1,0,0,0-.56-.86,4.68,4.68,0,0,0-1.67-.19,4.92,4.92,0,0,0-1.7.19,1,1,0,0,0-.55.86,27.28,27.28,0,0,0,0,5.32,1.07,1.07,0,0,0,.55.87A5.27,5.27,0,0,0,244.11,408.18Zm6.86,1v-7.94l-1.93.93V401l2.27-1.24h.84v9.38Z" transform="translate(-67.48 -115.23)"/><path class="cls-7" d="M249.91,383.92V372.35a.55.55,0,0,1,.54-.55h32a.55.55,0,0,1,.54.55v45.17a.55.55,0,0,1-.54.55h-24" transform="translate(-67.48 -115.23)"/><line class="cls-7" x1="182.28" y1="268.43" x2="215.33" y2="268.43"/><path class="cls-7" d="M260.39,395h22.36" transform="translate(-67.48 -115.23)"/><path class="cls-7" d="M260.66,406.48H283" transform="translate(-67.48 -115.23)"/></g></g></g></svg>